#File written by LIBRIZOMUV. Compilation :Oct 10 2018,19:05:57
mtllib cupdoard:mtl
#begin vertices
v -1 -0.077418 -0.389217
v -1 0.077418 -0.389217
v -1 -0.077418 0.389217
v -1 0.077418 0.389217
v 1 -0.077418 -0.389217
v 1 0.077418 -0.389217
v 1 -0.077418 0.389217
v 1 0.077418 0.389217
v 0.85277 -0.077418 0.389217
v -0.85277 -0.077418 0.389217
v -0.85277 0.077418 0.389217
v 0.85277 0.077418 0.389217
v -0.85277 -0.077418 -0.389217
v 0.85277 -0.077418 -0.389217
v 0.85277 0.077418 -0.389217
v -0.85277 0.077418 -0.389217
v -1 -0.077418 -0.239457
v -1 0.077418 -0.239457
v 1 -0.077418 -0.239457
v 1 0.077418 -0.239457
v 0.85277 0.077418 -0.239457
v -0.85277 0.077418 -0.239457
v -0.85277 -0.077418 -0.239457
v 0.85277 -0.077418 -0.239457
v -1 0.684494 -0.239457
v -1 0.684494 0.389217
v 0.85277 0.684494 0.389217
v 1 0.684494 0.389217
v 1 0.684494 -0.239457
v 1 0.684494 -0.389217
v -0.85277 0.684494 -0.389217
v -1 0.684494 -0.389217
v -0.85277 0.684494 0.389217
v 0.85277 0.684494 -0.389217
v 0.85277 0.684494 -0.239457
v -0.85277 0.684494 -0.239457
v -1 0.854038 -0.239457
v -1 0.854038 0.389217
v 0.85277 0.854038 0.389217
v 1 0.854038 0.389217
v 1 0.854038 -0.239457
v 1 0.854038 -0.389217
v -0.85277 0.854038 -0.389217
v -1 0.854038 -0.389217
v -0.85277 0.854038 0.389217
v 0.85277 0.854038 -0.389217
v 0.85277 0.854038 -0.239457
v -0.85277 0.854038 -0.239457
v -1 1.499398 -0.239457
v -1 1.499398 0.389217
v 0.85277 1.499398 0.389217
v 1 1.499398 0.389217
v 1 1.499398 -0.239457
v 1 1.499398 -0.389217
v -0.85277 1.499398 -0.389217
v -1 1.499398 -0.389217
v -0.85277 1.499398 0.389217
v 0.85277 1.499398 -0.389217
v 0.85277 1.499398 -0.239457
v -0.85277 1.499398 -0.239457
v -1 1.658003 -0.239457
v -1 1.658003 0.389217
v 0.85277 1.658003 0.389217
v 1 1.658003 0.389217
v 1 1.658003 -0.239457
v 1 1.658003 -0.389217
v -0.85277 1.658003 -0.389217
v -1 1.658003 -0.389217
v -0.85277 1.658003 0.389217
v 0.85277 1.658003 -0.389217
v 0.85277 1.658003 -0.239457
v -0.85277 1.658003 -0.239457
v -1 2.341647 -0.239457
v -1 2.341647 0.389217
v 0.85277 2.341647 0.389217
v 1 2.341647 0.389217
v 1 2.341647 -0.239457
v 1 2.341647 -0.389217
v -0.85277 2.341647 -0.389217
v -1 2.341647 -0.389217
v -0.85277 2.341647 0.389217
v 0.85277 2.341647 -0.389217
v 0.85277 2.341647 -0.239457
v -0.85277 2.341647 -0.239457
v -1 2.494784 -0.239457
v -1 2.494784 0.389217
v 0.85277 2.494784 0.389217
v 1 2.494784 0.389217
v 1 2.494784 -0.239457
v 1 2.494784 -0.389217
v -0.85277 2.494784 -0.389217
v -1 2.494784 -0.389217
v -0.85277 2.494784 0.389217
v 0.85277 2.494784 -0.389217
v 0.85277 2.494784 -0.239457
v -0.85277 2.494784 -0.239457
#end vertices

#begin 196 textures vertices 
vt 0.669788 0.4269216 0
vt 0.669788 0.4013403 0
vt 0.8053692 0.001953125 0
vt 0.8053692 0.02753448 0
vt 0.001953125 0.8556705 0
vt 0.001953125 0.8300892 0
vt 0.001953125 0.4269216 0
vt 0.001953125 0.4013403 0
vt 0.02627785 0.4269216 0
vt 0.3080601 0.4269216 0
vt 0.3080601 0.4013403 0
vt 0.8647414 0.5730784 0
vt 0.6454633 0.4269216 0
vt 0.4004853 0.736809 0
vt 0.3636811 0.4013403 0
vt 0.6454633 0.4013403 0
vt 0.7015023 0.001953125 0
vt 0.7015023 0.02753448 0
vt 0.02669585 0.8556705 0
vt 0.02669585 0.8300892 0
vt 0.9686083 0.5730784 0
vt 0.1417345 0.03103421 0
vt 0.3757426 0.4550268 0
vt 0.3757426 0.736809 0
vt 0.7015023 0.127833 0
vt 0.8053692 0.127833 0
vt 0.135992 0.03103421 0
vt 0.001953125 0.3010417 0
vt 0.02669585 0.7297906 0
vt 0.001953125 0.7297906 0
vt 0.6454633 0.3010417 0
vt 0.6767596 0.127833 0
vt 0.3080601 0.3010417 0
vt 0.3636811 0.3010417 0
vt 0.135992 0.1349011 0
vt 0.9686083 0.2875158 0
vt 0.7015023 0.1558444 0
vt 0.8053692 0.1558444 0
vt 0.9155878 0.2837353 0
vt 0.1305627 0.7017792 0
vt 0.02669585 0.7017792 0
vt 0.001953125 0.7017792 0
vt 0.6454633 0.2730303 0
vt 0.6767596 0.1558444 0
vt 0.3080601 0.2730303 0
vt 0.3636811 0.2730303 0
vt 0.5273382 0.430702 0
vt 0.1369144 0.8715378 0
vt 0.7015023 0.2624681 0
vt 0.8053692 0.2624681 0
vt 0.02627785 0.1664066 0
vt 0.1305627 0.5951556 0
vt 0.02669585 0.5951556 0
vt 0.001953125 0.5951556 0
vt 0.6454633 0.1664066 0
vt 0.6767596 0.2624681 0
vt 0.3080601 0.1664066 0
vt 0.3636811 0.1664066 0
vt 0.6430193 0.430702 0
vt 0.6430193 0.7124842 0
vt 0.7015023 0.2886721 0
vt 0.8053692 0.2886721 0
vt 0.7538803 0.430702 0
vt 0.001953125 0.1402026 0
vt 0.02669585 0.5689515 0
vt 0.001953125 0.5689515 0
vt 0.6454633 0.1402026 0
vt 0.6767596 0.2886721 0
vt 0.3080601 0.1402026 0
vt 0.3636811 0.1402026 0
vt 0.8577472 0.430702 0
vt 0.7346002 0.8292135 0
vt 0.7015023 0.401621 0
vt 0.8053692 0.401621 0
vt 0.727606 0.8292135 0
vt 0.001953125 0.02725378 0
vt 0.02669585 0.4560027 0
vt 0.001953125 0.4560027 0
vt 0.6454633 0.02725378 0
vt 0.6767596 0.401621 0
vt 0.3080601 0.02725378 0
vt 0.3636811 0.02725378 0
vt 0.5107039 0.9980469 0
vt 0.7346002 0.7162647 0
vt 0.2407813 0.7611337 0
vt 0.1369144 0.7611337 0
vt 0.02627785 0.001953125 0
vt 0.001953125 0.001953125 0
vt 0.02669585 0.430702 0
vt 0.001953125 0.430702 0
vt 0.265524 0.736809 0
vt 0.265524 0.7611337 0
vt 0.3080601 0.001953125 0
vt 0.3636811 0.001953125 0
vt 0.2407813 0.4550268 0
vt 0.2407813 0.736809 0
vt 0.2477755 0.8715378 0
vt 0.3516424 0.8715378 0
vt 0.3516424 0.7649141 0
vt 0.2477755 0.7649141 0
vt 0.6339619 0.430702 0
vt 0.6339619 0.7124842 0
vt 0.5273382 0.7124842 0
vt 0.8117209 0.2837353 0
vt 0.7468862 0.7124842 0
vt 0.7468862 0.430702 0
vt 0.1369144 0.7649141 0
vt 0.2407813 0.7649141 0
vt 0.2407813 0.8715378 0
vt 0.8117209 0.001953125 0
vt 0.02627785 0.2730303 0
vt 0.9155878 0.001953125 0
vt 0.6179966 0.7162647 0
vt 0.5176981 0.7162647 0
vt 0.5176981 0.9980469 0
vt 0.6179966 0.9980469 0
vt 0.9686083 0.569298 0
vt 0.8647414 0.569298 0
vt 0.8647414 0.2875158 0
vt 0.242033 0.03103421 0
vt 0.242033 0.1349011 0
vt 0.1417345 0.1349011 0
vt 0.9686083 0.8548606 0
vt 0.406837 0.9980469 0
vt 0.5197858 0.430702 0
vt 0.5107039 0.7162647 0
vt 0.406837 0.7162647 0
vt 0.8577472 0.7124842 0
vt 0.5197858 0.7124842 0
vt 0.838467 0.8292135 0
vt 0.838467 0.7162647 0
vt 0.406837 0.430702 0
vt 0.6237391 0.8292135 0
vt 0.406837 0.7124842 0
vt 0.02627785 0.3010417 0
vt 0.03569345 0.03103421 0
vt 0.03569345 0.1349011 0
vt 0.02627785 0.02725378 0
vt 0.6237391 0.7162647 0
vt 0.727606 0.7162647 0
vt 0.02627785 0.4013403 0
vt 0.8647414 0.8548606 0
vt 0.02627785 0.1402026 0
vt 0.7538803 0.7124842 0
vt 0.3323848 0.4269216 0
vt 0.1305627 0.4560027 0
vt 0.3323848 0.4013403 0
vt 0.3323848 0.1664066 0
vt 0.3323848 0.3010417 0
vt 0.3323848 0.02725378 0
vt 0.2718757 0.4550268 0
vt 0.3323848 0.2730303 0
vt 0.1305627 0.430702 0
vt 0.1305627 0.5689515 0
vt 0.1369144 0.4550268 0
vt 0.1369144 0.736809 0
vt 0.3323848 0.001953125 0
vt 0.3323848 0.1402026 0
vt 0.001953125 0.1664066 0
vt 0.001953125 0.2730303 0
vt 0.2718757 0.736809 0
vt 0.2718757 0.7611337 0
vt 0.1305627 0.8300892 0
vt 0.1305627 0.7297906 0
vt 0.2407813 0.430702 0
vt 0.1369144 0.430702 0
vt 0.7015023 0.4269216 0
vt 0.265524 0.4550268 0
vt 0.8053692 0.4269216 0
vt 0.669788 0.001953125 0
vt 0.6454633 0.001953125 0
vt 0.265524 0.430702 0
vt 0.3757426 0.7611337 0
vt 0.3393564 0.1402026 0
vt 0.3393564 0.2730303 0
vt 0.1305627 0.8556705 0
vt 0.4004853 0.7611337 0
vt 0.3393564 0.02725378 0
vt 0.3393564 0.1664066 0
vt 0.3393564 0.3010417 0
vt 0.3393564 0.4013403 0
vt 0.3393564 0.001953125 0
vt 0.3636811 0.4269216 0
vt 0.3393564 0.4269216 0
vt 0.6767596 0.02753448 0
vt 0.6767596 0.4269216 0
vt 0.669788 0.3010417 0
vt 0.669788 0.1664066 0
vt 0.669788 0.02725378 0
vt 0.669788 0.2730303 0
vt 0.669788 0.1402026 0
vt 0.4004853 0.430702 0
vt 0.4004853 0.4550268 0
vt 0.3757426 0.430702 0
vt 0.2718757 0.430702 0
vt 0.6767596 0.001953125 0
#end 196 textures vertices 

#begin 6 normals 
vn -1 0 0
vn 0 0 1
vn 1 0 0
vn 0 0 -1
vn 0 -1 0
vn 0 1 0
#end 6 normals 

#begin 94 faces
o Cube_Cube:001
usemtl None
s off
f 17/17/1 3/3/1 4/4/1 18/18/1 
f 9/9/2 7/7/2 8/8/2 12/141/2 
f 19/19/3 5/5/3 6/6/3 20/20/3 
f 13/13/4 1/1/4 2/2/4 16/16/4 
f 24/24/5 14/14/5 5/177/5 19/173/5 
f 16/16/4 31/31/4 34/34/4 15/15/4 
f 4/4/1 26/26/1 25/25/1 18/18/1 
f 18/18/1 25/25/1 32/32/1 2/185/1 
f 17/194/5 1/192/5 13/193/5 23/23/5 
f 23/23/5 13/193/5 14/14/5 24/24/5 
f 5/184/4 14/183/4 15/15/4 6/181/4 
f 14/183/4 13/13/4 16/16/4 15/15/4 
f 3/145/2 10/10/2 11/11/2 4/147/2 
f 10/10/2 9/9/2 12/141/2 11/11/2 
f 10/151/5 23/23/5 24/24/5 9/161/5 
f 3/195/5 17/194/5 23/23/5 10/151/5 
f 12/12/6 21/21/6 22/123/6 11/142/6 
f 8/8/2 28/28/2 27/135/2 12/141/2 
f 12/136/1 27/27/1 35/35/1 21/137/1 
f 9/161/5 24/24/5 19/173/5 7/162/5 
f 7/176/3 19/19/3 20/20/3 8/163/3 
f 1/196/1 17/17/1 18/18/1 2/185/1 
f 31/31/4 43/43/4 46/46/4 34/34/4 
f 25/25/1 37/37/1 44/44/1 32/32/1 
f 30/30/3 42/42/3 41/41/3 29/29/3 
f 33/33/2 27/135/2 39/111/2 45/45/2 
f 34/34/4 46/46/4 42/175/4 30/180/4 
f 22/22/3 36/120/3 33/121/3 11/122/3 
f 20/20/3 29/29/3 28/164/3 8/163/3 
f 11/11/2 33/33/2 26/149/2 4/147/2 
f 21/114/2 35/113/2 36/116/2 22/115/2 
f 2/2/4 32/187/4 31/31/4 16/16/4 
f 15/15/4 34/34/4 30/180/4 6/181/4 
f 6/6/3 30/30/3 29/29/3 20/20/3 
f 43/43/4 55/55/4 58/58/4 46/46/4 
f 37/37/1 49/49/1 56/56/1 44/44/1 
f 42/42/3 54/54/3 53/53/3 41/41/3 
f 48/48/3 60/107/3 57/108/3 45/109/3 
f 46/46/4 58/58/4 54/179/4 42/175/4 
f 27/118/5 33/119/5 36/36/5 35/117/5 
f 32/187/4 44/190/4 43/43/4 31/31/4 
f 29/29/3 41/41/3 40/40/3 28/164/3 
f 26/26/1 38/38/1 37/37/1 25/25/1 
f 33/33/2 45/45/2 38/152/2 26/149/2 
f 47/104/6 48/110/6 45/112/6 39/39/6 
f 28/28/2 40/160/2 39/111/2 27/135/2 
f 55/55/4 67/67/4 70/70/4 58/58/4 
f 49/49/1 61/61/1 68/68/1 56/56/1 
f 54/54/3 66/66/3 65/65/3 53/53/3 
f 57/57/2 51/51/2 63/143/2 69/69/2 
f 58/58/4 70/70/4 66/174/4 54/179/4 
f 47/47/2 59/101/2 60/102/2 48/103/2 
f 44/190/4 56/188/4 55/55/4 43/43/4 
f 41/41/3 53/53/3 52/52/3 40/40/3 
f 38/38/1 50/50/1 49/49/1 37/37/1 
f 45/45/2 57/57/2 50/148/2 38/152/2 
f 39/99/1 51/98/1 59/97/1 47/100/1 
f 40/160/2 52/159/2 51/51/2 39/111/2 
f 61/61/1 73/73/1 80/80/1 68/68/1 
f 66/66/3 78/78/3 77/77/3 65/65/3 
f 72/72/3 84/84/3 81/131/3 69/130/3 
f 70/70/4 82/82/4 78/178/4 66/174/4 
f 64/64/2 76/76/2 75/138/2 63/143/2 
f 51/106/5 57/105/5 60/60/5 59/59/5 
f 56/188/4 68/191/4 67/67/4 55/55/4 
f 53/53/3 65/65/3 64/154/3 52/52/3 
f 50/50/1 62/62/1 61/61/1 49/49/1 
f 57/57/2 69/69/2 62/158/2 50/148/2 
f 71/71/6 72/128/6 69/144/6 63/63/6 
f 52/159/2 64/64/2 63/143/2 51/51/2 
f 78/78/3 90/90/3 89/89/3 77/77/3 
f 87/87/2 93/93/2 81/81/2 75/138/2 
f 82/82/4 94/94/4 90/182/4 78/178/4 
f 76/76/2 88/88/2 87/87/2 75/138/2 
f 83/83/5 75/124/5 81/127/5 84/126/5 
f 67/67/4 79/79/4 82/82/4 70/70/4 
f 71/132/2 83/125/2 84/129/2 72/134/2 
f 68/191/4 80/189/4 79/79/4 67/67/4 
f 65/65/3 77/77/3 76/146/3 64/154/3 
f 62/62/1 74/74/1 73/73/1 61/61/1 
f 69/69/2 81/81/2 74/150/2 62/158/2 
f 63/140/1 75/75/1 83/133/1 71/139/1 
f 96/96/6 91/91/6 92/92/6 85/85/6 
f 89/165/6 90/172/6 94/168/6 95/95/6 
f 95/95/6 94/168/6 91/91/6 96/96/6 
f 88/166/6 89/165/6 95/95/6 87/155/6 
f 93/156/6 96/96/6 85/85/6 86/86/6 
f 73/73/1 85/167/1 92/186/1 80/80/1 
f 79/79/4 91/171/4 94/94/4 82/82/4 
f 95/95/6 96/96/6 93/156/6 87/155/6 
f 80/189/4 92/170/4 91/171/4 79/79/4 
f 77/77/3 89/89/3 88/153/3 76/146/3 
f 74/74/1 86/169/1 85/167/1 73/73/1 
f 81/81/2 93/93/2 86/157/2 74/150/2 
#end 94 faces

#begin properties
#ZOMPROPERTIES_02 table {Mesh table {IslandsUVW table {0 table {TopoStable table {Selected bool false Visible bool false } } 1 table {TopoStable table {Selected bool false Visible bool false } } 2 table {TopoStable table {Selected bool false Visible bool false } } 3 table {TopoStable table {Selected bool false Visible bool false } } 4 table {TopoStable table {Selected bool false Visible bool false } } 5 table {TopoStable table {Selected bool false Visible bool false } } 6 table {TopoStable table {Selected bool false Visible bool false } } 7 table {TopoStable table {Selected bool false Visible bool false } } 8 table {TopoStable table {Selected bool false Visible bool false } } 9 table {TopoStable table {Selected bool false Visible bool false } } 10 table {TopoStable table {Selected bool false Visible bool false } } 11 table {TopoStable table {Selected bool false Visible bool false } } 12 table {TopoStable table {Selected bool false Visible bool false } } 13 table {TopoStable table {Selected bool false Visible bool false } } 14 table {TopoStable table {Selected bool false Visible bool false } } 15 table {TopoStable table {Selected bool false Visible bool false } } 16 table {TopoStable table {Selected bool false Visible bool false } } 17 table {TopoStable table {Selected bool false Visible bool false } } 18 table {TopoStable table {Selected bool false Visible bool false } } 19 table {TopoStable table {Selected bool false Visible bool false } } 20 table {TopoStable table {Selected bool false Visible bool false } } } SymPlane table {Point vector3d 0 0 0 Normal vector3d 1 0 0 Threshold double 0.01 Enabled bool false EdgeID int -1 SymEdgeID int -1 UPos double 0.5 LocalMode bool false } RootGroup CSubMeshGroup {Children table {Tile_0_0 CSubMeshGroup {Children table {} IslandIDs ints { 0 4 1 2 3 5 6 7 8 9 10 11 12 13 14 15 16 17 18 19 20 } BBoxUV box3d 0 0 0 0 0 0 BBox3D box3d 0 0 0 0 0 0 AreaUV double 0 Area3D double 0 IsRoot bool false TopoStable table {Selected bool false Box box3d 0 1 0 1 0 1 U int 0 V int 0 NU int 0 NV int 0 Tiling vector3d 1 1 1 TileRatioMode string "1:1" } IsTile bool true } } IslandIDs ints { } BBoxUV box3d 0 0 0 0 0 0 BBox3D box3d 0 0 0 0 0 0 AreaUV double 0 Area3D double 0 IsRoot bool true TopoStable table {Selected bool false Box box3d 0 1 0 1 0 1 U int 0 V int 0 NU int 1 NV int 1 Tiling vector3d 1 1 1 TileRatioMode string "1:1" Pack table {Rotate table {Mode int 2 Min double 0 Max double 180 Step double 0 } SpacingSize double 0.00390625 MarginSize double 0.001953125 Resolution int 200 Scaling table {Mode int 0 } LayoutScalingMode int 2 MaxMutations int 1 } } IsTile bool false } Maps table {Density table {PrimType string "Polygon" Size int 1 DefaultValue double 1 ScaleType string "Log" MinValue double 0.1 MaxValue double 4 Data doubles { r 94 1 } } Pin table {PrimType string "Vertex" Size int 1 DefaultValue double 0 ScaleType string "Normalized" MinValue double 0 MaxValue double 1 Data doubles { r 196 0 } } Protect table {PrimType string "Vertex" Size int 1 DefaultValue double 0 ScaleType string "Normalized" MinValue double -1 MaxValue double 1 Data doubles { r 196 0 } } } } }
#end properties

#begin 0 fatal error vertex (that RizomUV cannot handle)
#end 0 fatal error vertex (that RizomUV cannot handle)

#begin 0 error vertex
#end 0 error vertex
