#File written by LIBRIZOMUV. Compilation :Oct 10 2018,19:05:57
mtllib CampFire:mtl
#begin vertices
v 2.066025 -0.5 -0.5
v 0.333975 0.5 -0.5
v 2.242802 -0.193814 -0.353553
v 0.510751 0.806186 -0.353553
v 2.316025 -0.066987 0
v 0.583975 0.933013 0
v 2.242802 -0.193814 0.353553
v 0.510751 0.806186 0.353553
v 2.066025 -0.5 0.5
v 0.333975 0.5 0.5
v 1.889249 -0.806186 0.353553
v 0.157198 0.193814 0.353553
v 1.816025 -0.933013 -0
v 0.083975 0.066987 -0
v 1.889249 -0.806186 -0.353553
v 0.157198 0.193814 -0.353553
v 0.521524 -0.5 -1.792588
v -0.520369 0.5 -0.408949
v 0.74485 -0.193814 -1.845713
v -0.297043 0.806186 -0.462073
v 1.071331 -0.066987 -1.691531
v 0.029438 0.933013 -0.307891
v 1.309719 -0.193814 -1.420362
v 0.267826 0.806186 -0.036722
v 1.320369 -0.5 -1.191051
v 0.278476 0.5 0.192589
v 1.097043 -0.806186 -1.137927
v 0.05515 0.193814 0.245712
v 0.770562 -0.933013 -1.292109
v -0.271331 0.066987 0.091531
v 0.532175 -0.806186 -1.563278
v -0.509718 0.193814 -0.179638
v -1.581715 -0.5 -0.490356
v -0.273996 0.5 0.645368
v -1.619157 -0.193814 -0.71684
v -0.311438 0.806186 0.418885
v -1.442613 -0.066987 -1.03179
v -0.134893 0.933013 0.103935
v -1.155499 -0.193814 -1.250714
v 0.15222 0.806186 -0.114989
v -0.926004 -0.5 -1.245368
v 0.381715 0.5 -0.109644
v -0.888562 -0.806186 -1.018885
v 0.419157 0.193814 0.11684
v -1.065107 -0.933013 -0.703935
v 0.242613 0.066987 0.43179
v -1.35222 -0.806186 -0.485011
v -0.0445 0.193814 0.650714
v -1.149495 -0.5 1.936938
v 0.18616 0.5 0.834202
v -1.379052 -0.193814 1.936555
v -0.043397 0.806186 0.833819
v -1.660613 -0.066987 1.710534
v -0.324958 0.933013 0.607798
v -1.829242 -0.193814 1.391276
v -0.493587 0.806186 0.28854
v -1.78616 -0.5 1.165797
v -0.450505 0.5 0.063062
v -1.556603 -0.806186 1.166181
v -0.220948 0.193814 0.063445
v -1.275042 -0.933013 1.392202
v 0.060613 0.066987 0.289466
v -1.106413 -0.806186 1.71146
v 0.229242 0.193814 0.608724
v 1.238557 -0.5 1.769575
v 0.947193 0.5 0.062206
v 1.123935 -0.193814 1.968467
v 0.83257 0.806186 0.261099
v 0.787737 -0.066987 2.100121
v 0.496373 0.933013 0.392753
v 0.426904 -0.193814 2.087416
v 0.13554 0.806186 0.380048
v 0.252807 -0.5 1.937794
v -0.038557 0.5 0.230425
v 0.36743 -0.806186 1.738901
v 0.076065 0.193814 0.031533
v 0.703627 -0.933013 1.607247
v 0.412263 0.066987 -0.100122
v 1.06446 -0.806186 1.619952
v 0.773096 0.193814 -0.087416
#end vertices

#begin 170 textures vertices 
vt 0.8776527 0.3309592 0
vt 0.5910746 0.3309592 0
vt 0.8776528 0.2761248 0
vt 0.5910746 0.2761249 0
vt 0.8776527 0.2212905 0
vt 0.5910746 0.2212905 0
vt 0.8776528 0.1664562 0
vt 0.5910746 0.1664561 0
vt 0.8776527 0.1116218 0
vt 0.5910746 0.1116218 0
vt 0.8776528 0.05678748 0
vt 0.5910746 0.05678745 0
vt 0.8776528 0.001953125 0
vt 0.5910747 0.4406279 0
vt 0.8776528 0.3857935 0
vt 0.9044389 0.5108228 0
vt 0.2885313 0.7735501 0
vt 0.00195317 0.7735501 0
vt 0.2885314 0.7187157 0
vt 0.001953198 0.7187157 0
vt 0.2885313 0.6638813 0
vt 0.001953125 0.6638813 0
vt 0.2885315 0.609047 0
vt 0.001953241 0.6090469 0
vt 0.2885313 0.5542126 0
vt 0.001953125 0.5542125 0
vt 0.2885313 0.4993782 0
vt 0.001953211 0.4993782 0
vt 0.2885314 0.8832187 0
vt 0.001953184 0.4445438 0
vt 0.2885313 0.8283844 0
vt 0.6846826 0.5808413 0
vt 0.2885314 0.3309593 0
vt 0.00195327 0.3309593 0
vt 0.2885315 0.2761249 0
vt 0.001953267 0.276125 0
vt 0.2885314 0.2212906 0
vt 0.001953143 0.2212906 0
vt 0.2885314 0.1664561 0
vt 0.001953227 0.1664562 0
vt 0.2885314 0.1116218 0
vt 0.001953256 0.1116219 0
vt 0.2885314 0.05678751 0
vt 0.001953176 0.05678749 0
vt 0.2885315 0.440628 0
vt 0.001953205 0.001953173 0
vt 0.2885314 0.3857937 0
vt 0.863248 0.7559128 0
vt 0.5830921 0.7735502 0
vt 0.2965138 0.7735502 0
vt 0.5830921 0.7187158 0
vt 0.2965139 0.7187158 0
vt 0.5830921 0.6638814 0
vt 0.2965139 0.6638814 0
vt 0.5830921 0.609047 0
vt 0.2965139 0.609047 0
vt 0.5830921 0.5542126 0
vt 0.2965139 0.5542127 0
vt 0.5830921 0.4993783 0
vt 0.2965139 0.4993784 0
vt 0.5830921 0.8832188 0
vt 0.2965138 0.4445439 0
vt 0.5830921 0.8283844 0
vt 0.8456948 0.8421622 0
vt 0.5830921 0.276125 0
vt 0.2965139 0.276125 0
vt 0.5830921 0.2212907 0
vt 0.2965139 0.2212906 0
vt 0.583092 0.1664563 0
vt 0.2965138 0.1664563 0
vt 0.5830921 0.1116218 0
vt 0.2965139 0.1116218 0
vt 0.5830921 0.05678751 0
vt 0.2965138 0.05678747 0
vt 0.5830921 0.001953125 0
vt 0.2965139 0.4406282 0
vt 0.5830921 0.3857938 0
vt 0.2965138 0.3857937 0
vt 0.583092 0.3309593 0
vt 0.6846825 0.4445436 0
vt 0.9980468 0.6044311 0
vt 0.8656651 0.5495965 0
vt 0.9980469 0.5495967 0
vt 0.8656651 0.6044308 0
vt 0.9592733 0.5108229 0
vt 0.9044387 0.6432047 0
vt 0.5910746 0.3857935 0
vt 0.959273 0.6432047 0
vt 0.9980469 0.7407284 0
vt 0.8656651 0.6858943 0
vt 0.9980469 0.6858941 0
vt 0.8656651 0.7407287 0
vt 0.9592733 0.7795023 0
vt 0.9044387 0.6471204 0
vt 0.9044389 0.7795023 0
vt 0.959273 0.6471204 0
vt 0.5910747 0.001953125 0
vt 0.8776528 0.4406279 0
vt 0.9780767 0.8421622 0
vt 0.8456948 0.8969965 0
vt 0.939303 0.8033884 0
vt 0.8844685 0.9357702 0
vt 0.8844685 0.8033884 0
vt 0.2965139 0.8832188 0
vt 0.939303 0.9357703 0
vt 0.2965139 0.8283844 0
vt 0.9780767 0.8969965 0
vt 0.6846829 0.7132231 0
vt 0.6298482 0.5808413 0
vt 0.7234564 0.6744492 0
vt 0.5910746 0.6196151 0
vt 0.7234564 0.6196148 0
vt 0.001953167 0.8832187 0
vt 0.5910747 0.6744495 0
vt 0.001953128 0.8283845 0
vt 0.6298485 0.7132232 0
vt 0.8244741 0.5769256 0
vt 0.7696398 0.4445436 0
vt 0.8632479 0.5381519 0
vt 0.7308661 0.4833174 0
vt 0.2885314 0.4445438 0
vt 0.7696396 0.5769255 0
vt 0.8244743 0.4445437 0
vt 0.7308661 0.5381517 0
vt 0.863248 0.4833175 0
vt 0.7234564 0.7559127 0
vt 0.5910746 0.810747 0
vt 0.6846828 0.7171389 0
vt 0.6298483 0.8495208 0
vt 0.5830921 0.4445438 0
vt 0.7234564 0.8107472 0
vt 0.5910746 0.7559126 0
vt 0.6846826 0.8495208 0
vt 0.6298484 0.7171389 0
vt 0.6846828 0.5769255 0
vt 0.6298482 0.4445436 0
vt 0.7234565 0.5381518 0
vt 0.5910746 0.4833175 0
vt 0.7234565 0.4833173 0
vt 0.5910746 0.5381518 0
vt 0.2965139 0.3309593 0
vt 0.6298484 0.5769255 0
vt 0.7696399 0.7132232 0
vt 0.8244741 0.5808413 0
vt 0.8244743 0.7132232 0
vt 0.7696398 0.5808413 0
vt 0.7308661 0.6744495 0
vt 0.8632479 0.6196151 0
vt 0.7308661 0.6196151 0
vt 0.8632479 0.6744495 0
vt 0.2965139 0.0019532 0
vt 0.583092 0.4406281 0
vt 0.6997441 0.9807032 0
vt 0.7545784 0.8483213 0
vt 0.7545785 0.9807031 0
vt 0.699744 0.8483213 0
vt 0.2885315 0.001953125 0
vt 0.6609703 0.9419294 0
vt 0.7933522 0.8870949 0
vt 0.6609703 0.8870951 0
vt 0.7933522 0.9419294 0
vt 0.7696398 0.8495208 0
vt 0.8244742 0.717139 0
vt 0.8244741 0.8495208 0
vt 0.7696399 0.7171389 0
vt 0.863248 0.8107472 0
vt 0.001953205 0.4406281 0
vt 0.7308661 0.7559127 0
vt 0.001953125 0.3857937 0
vt 0.7308661 0.810747 0
#end 170 textures vertices 

#begin 50 normals 
vn 0.1913 0.3314 -0.9239
vn 0.4619 0.8001 -0.3827
vn 0.4619 0.8001 0.3827
vn 0.1913 0.3314 0.9239
vn -0.1913 -0.3314 0.9239
vn -0.4619 -0.8001 0.3827
vn -0.866 0.5 -0
vn -0.4619 -0.8001 -0.3827
vn -0.1913 -0.3314 -0.9239
vn 0.866 -0.5 0
vn -0.6229 0.3314 -0.7086
vn -0.0278 0.8001 -0.5992
vn 0.5836 0.8001 -0.1388
vn 0.8531 0.3314 0.4029
vn 0.6229 -0.3314 0.7086
vn 0.0278 -0.8001 0.5992
vn -0.5209 0.5 0.6918
vn -0.5836 -0.8001 0.1388
vn -0.8531 -0.3314 -0.4029
vn 0.5209 -0.5 -0.6918
vn -0.7503 0.3314 0.5721
vn -0.5997 0.8001 -0.014
vn -0.0978 0.8001 -0.5918
vn 0.4613 0.3314 -0.823
vn 0.7503 -0.3314 -0.5721
vn 0.5997 -0.8001 0.014
vn 0.6539 0.5 0.5679
vn 0.0978 -0.8001 0.5918
vn -0.4613 -0.3314 0.823
vn -0.6539 -0.5 -0.5679
vn 0.4407 0.3314 0.8343
vn -0.1126 0.8001 0.5892
vn -0.5999 0.8001 -0.001
vn -0.7358 0.3314 -0.5906
vn -0.4407 -0.3314 -0.8343
vn 0.1126 -0.8001 -0.5892
vn 0.6678 0.5 -0.5514
vn 0.5999 -0.8001 0.001
vn 0.7358 -0.3314 0.5906
vn -0.6678 -0.5 0.5514
vn 0.9429 0.3314 0.0332
vn 0.4549 0.8001 0.391
vn -0.2995 0.8001 0.5197
vn -0.8785 0.3314 0.344
vn -0.9429 -0.3314 -0.0332
vn -0.4549 -0.8001 -0.391
vn -0.1457 0.5 -0.8537
vn 0.2995 -0.8001 -0.5197
vn 0.8785 -0.3314 -0.344
vn 0.1457 -0.5 0.8537
#end 50 normals 

#begin 50 faces
o Cylinder
usemtl None
s off
f 1/1/1 2/2/1 4/4/1 3/3/1 
f 3/3/2 4/4/2 6/6/2 5/5/2 
f 5/5/3 6/6/3 8/8/3 7/7/3 
f 7/7/4 8/8/4 10/10/4 9/9/4 
f 9/9/5 10/10/5 12/12/5 11/11/5 
f 11/11/6 12/12/6 14/97/6 13/13/6 
f 4/84/7 2/82/7 16/16/7 14/85/7 12/83/7 10/81/7 8/88/7 6/86/7 
f 13/98/8 14/14/8 16/87/8 15/15/8 
f 15/15/9 16/87/9 2/2/9 1/1/9 
f 1/92/10 3/90/10 5/94/10 7/96/10 9/91/10 11/89/10 13/93/10 15/95/10 
o Cylinder:001
usemtl None
s off
f 17/17/11 18/18/11 20/20/11 19/19/11 
f 19/19/12 20/20/12 22/22/12 21/21/12 
f 21/21/13 22/22/13 24/24/13 23/23/13 
f 23/23/14 24/24/14 26/26/14 25/25/14 
f 25/25/15 26/26/15 28/28/15 27/27/15 
f 27/27/16 28/28/16 30/30/16 29/121/16 
f 20/111/17 18/109/17 32/32/17 30/112/17 28/110/17 26/108/17 24/116/17 22/114/17 
f 29/29/18 30/113/18 32/115/18 31/31/18 
f 31/31/19 32/115/19 18/18/19 17/17/19 
f 17/120/20 19/118/20 21/123/20 23/125/20 25/119/20 27/117/20 29/122/20 31/124/20 
o Cylinder:002
usemtl None
s off
f 33/33/21 34/34/21 36/36/21 35/35/21 
f 35/35/22 36/36/22 38/38/22 37/37/22 
f 37/37/23 38/38/23 40/40/23 39/39/23 
f 39/39/24 40/40/24 42/42/24 41/41/24 
f 41/41/25 42/42/25 44/44/25 43/43/25 
f 43/43/26 44/44/26 46/46/26 45/157/26 
f 36/165/27 34/163/27 48/48/27 46/166/27 44/164/27 42/162/27 40/170/27 38/168/27 
f 45/45/28 46/167/28 48/169/28 47/47/28 
f 47/47/29 48/169/29 34/34/29 33/33/29 
f 33/156/30 35/154/30 37/159/30 39/161/30 41/155/30 43/153/30 45/158/30 47/160/30 
o Cylinder:003
usemtl None
s off
f 49/49/31 50/50/31 52/52/31 51/51/31 
f 51/51/32 52/52/32 54/54/32 53/53/32 
f 53/53/33 54/54/33 56/56/33 55/55/33 
f 55/55/34 56/56/34 58/58/34 57/57/34 
f 57/57/35 58/58/35 60/60/35 59/59/35 
f 59/59/36 60/60/36 62/62/36 61/130/36 
f 52/102/37 50/100/37 64/64/37 62/103/37 60/101/37 58/99/37 56/107/37 54/105/37 
f 61/61/38 62/104/38 64/106/38 63/63/38 
f 63/63/39 64/106/39 50/50/39 49/49/39 
f 49/129/40 51/127/40 53/132/40 55/134/40 57/128/40 59/126/40 61/131/40 63/133/40 
o Cylinder:004
usemtl None
s off
f 65/65/41 66/66/41 68/68/41 67/67/41 
f 67/67/42 68/68/42 70/70/42 69/69/42 
f 69/69/43 70/70/43 72/72/43 71/71/43 
f 71/71/44 72/72/44 74/74/44 73/73/44 
f 73/73/45 74/74/45 76/151/45 75/75/45 
f 75/152/46 76/76/46 78/78/46 77/77/46 
f 68/138/47 66/136/47 80/80/47 78/139/47 76/137/47 74/135/47 72/142/47 70/140/47 
f 77/77/48 78/78/48 80/141/48 79/79/48 
f 79/79/49 80/141/49 66/66/49 65/65/49 
f 65/146/50 67/144/50 69/148/50 71/150/50 73/145/50 75/143/50 77/147/50 79/149/50 
#end 50 faces

#begin properties
#ZOMPROPERTIES_02 table {Mesh table {IslandsUVW table {0 table {TopoStable table {Selected bool false Visible bool false } } 1 table {TopoStable table {Selected bool false Visible bool false } } 2 table {TopoStable table {Selected bool false Visible bool false } } 3 table {TopoStable table {Selected bool false Visible bool false } } 4 table {TopoStable table {Selected bool false Visible bool false } } 5 table {TopoStable table {Selected bool false Visible bool false } } 6 table {TopoStable table {Selected bool false Visible bool false } } 7 table {TopoStable table {Selected bool false Visible bool false } } 8 table {TopoStable table {Selected bool false Visible bool false } } 9 table {TopoStable table {Selected bool false Visible bool false } } 10 table {TopoStable table {Selected bool false Visible bool false } } 11 table {TopoStable table {Selected bool false Visible bool false } } 12 table {TopoStable table {Selected bool false Visible bool false } } 13 table {TopoStable table {Selected bool false Visible bool false } } 14 table {TopoStable table {Selected bool false Visible bool false } } } SymPlane table {Point vector3d 0 0 0 Normal vector3d 1 0 0 Threshold double 0.01 Enabled bool false EdgeID int -1 SymEdgeID int -1 UPos double 0.5 LocalMode bool false } RootGroup CSubMeshGroup {Children table {Tile_0_0 CSubMeshGroup {Children table {} IslandIDs ints { 0 1 2 3 4 5 6 7 8 9 10 11 12 13 14 } BBoxUV box3d 0 0 0 0 0 0 BBox3D box3d 0 0 0 0 0 0 AreaUV double 0 Area3D double 0 IsRoot bool false TopoStable table {Selected bool false Box box3d 0 1 0 1 0 1 U int 0 V int 0 NU int 0 NV int 0 Tiling vector3d 1 1 1 TileRatioMode string "1:1" } IsTile bool true } } IslandIDs ints { } BBoxUV box3d 0 0 0 0 0 0 BBox3D box3d 0 0 0 0 0 0 AreaUV double 0 Area3D double 0 IsRoot bool true TopoStable table {Selected bool false Box box3d 0 1 0 1 0 1 U int 0 V int 0 NU int 1 NV int 1 Tiling vector3d 1 1 1 TileRatioMode string "1:1" Pack table {Rotate table {Mode int 2 Min double 0 Max double 180 Step double 0 } SpacingSize double 0.00390625 MarginSize double 0.001953125 Resolution int 200 Scaling table {Mode int 0 } LayoutScalingMode int 2 MaxMutations int 1 } } IsTile bool false } Maps table {Density table {PrimType string "Polygon" Size int 1 DefaultValue double 1 ScaleType string "Log" MinValue double 0.1 MaxValue double 4 Data doubles { r 50 1 } } Pin table {PrimType string "Vertex" Size int 1 DefaultValue double 0 ScaleType string "Normalized" MinValue double 0 MaxValue double 1 Data doubles { r 170 0 } } Protect table {PrimType string "Vertex" Size int 1 DefaultValue double 0 ScaleType string "Normalized" MinValue double -1 MaxValue double 1 Data doubles { r 170 0 } } } } }
#end properties

#begin 0 fatal error vertex (that RizomUV cannot handle)
#end 0 fatal error vertex (that RizomUV cannot handle)

#begin 0 error vertex
#end 0 error vertex
